<svg xmlns="http://www.w3.org/2000/svg" viewBox="0 0 1600 1400" fill="none">
  <g opacity=".95">
    <circle cx="82" cy="116" r="1.2" fill="#F4F1EA" fill-opacity=".65"/>
    <circle cx="144" cy="322" r="1" fill="#D9E4F5" fill-opacity=".42"/>
    <circle cx="210" cy="188" r="1.8" fill="#CFBA8D" fill-opacity=".42"/>
    <circle cx="268" cy="412" r="1.2" fill="#D9E4F5" fill-opacity=".55"/>
    <circle cx="324" cy="92" r="1.1" fill="#A9C8FF" fill-opacity=".45"/>
    <circle cx="378" cy="286" r="1.6" fill="#F4F1EA" fill-opacity=".58"/>
    <circle cx="438" cy="510" r="1.1" fill="#D9E4F5" fill-opacity=".48"/>
    <circle cx="490" cy="152" r="1.4" fill="#A9C8FF" fill-opacity=".42"/>
    <circle cx="564" cy="370" r="1.2" fill="#F4F1EA" fill-opacity=".52"/>
    <circle cx="628" cy="214" r="2" fill="#CFBA8D" fill-opacity=".34"/>
    <circle cx="676" cy="474" r="1.1" fill="#D9E4F5" fill-opacity=".58"/>
    <circle cx="742" cy="102" r="1.6" fill="#A9C8FF" fill-opacity=".4"/>
    <circle cx="808" cy="256" r="1.2" fill="#F4F1EA" fill-opacity=".56"/>
    <circle cx="874" cy="164" r="1.05" fill="#D9E4F5" fill-opacity=".4"/>
    <circle cx="936" cy="332" r="1.6" fill="#CFBA8D" fill-opacity=".3"/>
    <circle cx="1008" cy="118" r="1.3" fill="#F4F1EA" fill-opacity=".5"/>
    <circle cx="1072" cy="266" r="1" fill="#D9E4F5" fill-opacity=".48"/>
    <circle cx="1134" cy="468" r="1.4" fill="#A9C8FF" fill-opacity=".44"/>
    <circle cx="1188" cy="206" r="1.2" fill="#F4F1EA" fill-opacity=".54"/>
    <circle cx="1248" cy="94" r="1.8" fill="#CFBA8D" fill-opacity=".28"/>
    <circle cx="1306" cy="314" r="1.2" fill="#D9E4F5" fill-opacity=".45"/>
    <circle cx="1368" cy="180" r="1.1" fill="#F4F1EA" fill-opacity=".62"/>
    <circle cx="1430" cy="402" r="1.4" fill="#A9C8FF" fill-opacity=".42"/>
    <circle cx="1494" cy="132" r="1.1" fill="#D9E4F5" fill-opacity=".48"/>
    <circle cx="118" cy="650" r="1.2" fill="#A9C8FF" fill-opacity=".4"/>
    <circle cx="186" cy="540" r="1.7" fill="#F4F1EA" fill-opacity=".56"/>
    <circle cx="246" cy="760" r="1.15" fill="#D9E4F5" fill-opacity=".44"/>
    <circle cx="308" cy="628" r="1" fill="#CFBA8D" fill-opacity=".28"/>
    <circle cx="362" cy="834" r="1.45" fill="#F4F1EA" fill-opacity=".48"/>
    <circle cx="428" cy="704" r="1.15" fill="#D9E4F5" fill-opacity=".52"/>
    <circle cx="492" cy="616" r="1.8" fill="#A9C8FF" fill-opacity=".35"/>
    <circle cx="548" cy="892" r="1.2" fill="#F4F1EA" fill-opacity=".54"/>
    <circle cx="612" cy="734" r="1.1" fill="#D9E4F5" fill-opacity=".46"/>
    <circle cx="686" cy="624" r="1.9" fill="#CFBA8D" fill-opacity=".24"/>
    <circle cx="746" cy="850" r="1.2" fill="#F4F1EA" fill-opacity=".52"/>
    <circle cx="802" cy="700" r="1.05" fill="#A9C8FF" fill-opacity=".42"/>
    <circle cx="868" cy="928" r="1.35" fill="#D9E4F5" fill-opacity=".48"/>
    <circle cx="936" cy="784" r="1.15" fill="#F4F1EA" fill-opacity=".56"/>
    <circle cx="990" cy="646" r="1.6" fill="#A9C8FF" fill-opacity=".36"/>
    <circle cx="1064" cy="904" r="1.1" fill="#D9E4F5" fill-opacity=".5"/>
    <circle cx="1126" cy="742" r="1.9" fill="#CFBA8D" fill-opacity=".22"/>
    <circle cx="1192" cy="860" r="1.25" fill="#F4F1EA" fill-opacity=".55"/>
    <circle cx="1256" cy="660" r="1.1" fill="#A9C8FF" fill-opacity=".4"/>
    <circle cx="1318" cy="948" r="1.3" fill="#D9E4F5" fill-opacity=".48"/>
    <circle cx="1386" cy="732" r="1.15" fill="#F4F1EA" fill-opacity=".58"/>
    <circle cx="1448" cy="612" r="1.7" fill="#A9C8FF" fill-opacity=".34"/>
    <circle cx="1510" cy="864" r="1.1" fill="#D9E4F5" fill-opacity=".44"/>
    <circle cx="96" cy="1128" r="1.7" fill="#CFBA8D" fill-opacity=".2"/>
    <circle cx="170" cy="1004" r="1.15" fill="#F4F1EA" fill-opacity=".52"/>
    <circle cx="230" cy="1272" r="1.1" fill="#A9C8FF" fill-opacity=".36"/>
    <circle cx="288" cy="1094" r="1.4" fill="#D9E4F5" fill-opacity=".48"/>
    <circle cx="348" cy="1186" r="1.05" fill="#F4F1EA" fill-opacity=".58"/>
    <circle cx="414" cy="1028" r="1.8" fill="#A9C8FF" fill-opacity=".28"/>
    <circle cx="482" cy="1324" r="1.1" fill="#D9E4F5" fill-opacity=".42"/>
    <circle cx="544" cy="1116" r="1.2" fill="#F4F1EA" fill-opacity=".5"/>
    <circle cx="604" cy="1224" r="1.6" fill="#CFBA8D" fill-opacity=".24"/>
    <circle cx="672" cy="1048" r="1.1" fill="#D9E4F5" fill-opacity=".46"/>
    <circle cx="738" cy="1290" r="1.25" fill="#F4F1EA" fill-opacity=".56"/>
    <circle cx="806" cy="1156" r="1.1" fill="#A9C8FF" fill-opacity=".42"/>
    <circle cx="874" cy="1246" r="1.6" fill="#D9E4F5" fill-opacity=".44"/>
    <circle cx="942" cy="1068" r="1.2" fill="#F4F1EA" fill-opacity=".54"/>
    <circle cx="1008" cy="1332" r="1" fill="#A9C8FF" fill-opacity=".38"/>
    <circle cx="1076" cy="1140" r="1.3" fill="#D9E4F5" fill-opacity=".46"/>
    <circle cx="1144" cy="1278" r="1.1" fill="#F4F1EA" fill-opacity=".58"/>
    <circle cx="1212" cy="1098" r="1.8" fill="#CFBA8D" fill-opacity=".22"/>
    <circle cx="1280" cy="1214" r="1.2" fill="#D9E4F5" fill-opacity=".5"/>
    <circle cx="1344" cy="1042" r="1.05" fill="#F4F1EA" fill-opacity=".56"/>
    <circle cx="1412" cy="1320" r="1.2" fill="#A9C8FF" fill-opacity=".4"/>
    <circle cx="1484" cy="1166" r="1.4" fill="#D9E4F5" fill-opacity=".42"/>
  </g>
</svg>
